<svg width="16" height="16" fill="none" xmlns="http://www.w3.org/2000/svg"><g clip-path="url(#clip0_390_1242)"><path d="M13.864.104H2.016A2.02 2.02 0 000 2.128v11.848A2.02 2.02 0 002.016 16h11.848a2.02 2.02 0 002.016-2.024V2.128A2.02 2.02 0 0013.864.104z" fill="#174BE6"/><path d="M6.517 4.983h-.828v.814h.828v-.814zm1.6 5.213H4.089v.83h4.028v-.83zm3.591-3.181H7.65v.83h4.058v-.83z" fill="#fff"/><path d="M11.708 4.968h-1.6a.826.826 0 00-.828.83v5.227h.828V6.097a.298.298 0 01.296-.298h1.304v-.83zM5.69 6.185H4.577v.83h.8a.312.312 0 01.313.314v3.697h.827v-4.01a.833.833 0 00-.51-.768.824.824 0 00-.317-.063z" fill="#fff"/></g><defs><clipPath id="clip0_390_1242"><path fill="#fff" d="M0 0h16v16H0z"/></clipPath></defs></svg>