<svg id="Layer_1" data-name="Layer 1" xmlns="http://www.w3.org/2000/svg" viewBox="0 0 143 49.67"><defs><style>.cls-2{fill:#fff}</style></defs><path d="M44.19.33H6.43A6.38 6.38 0 000 6.65v37A6.38 6.38 0 006.43 50h37.76a6.38 6.38 0 006.43-6.32v-37A6.38 6.38 0 0044.19.33z" transform="translate(0 -.33)" fill="#174be6"/><path class="cls-2" d="M18.13 15.25h2.64v2.54h-2.64z"/><path class="cls-2" d="M32.29 18.7a.81.81 0 01.21-.3.9.9 0 01.3-.21 1.16 1.16 0 01.37-.07h4.15v-2.59h-5.1a2.67 2.67 0 00-1.87.76 2.56 2.56 0 00-.77 1.83v3.8h-5.19v2.6h5.19v9.93h2.64v-9.93h5.1v-2.6h-5.1v-2.87a.84.84 0 01.07-.35zm-11.52 3.22a2.57 2.57 0 00-.2-1 2.41 2.41 0 00-.57-.84 2.76 2.76 0 00-.85-.57 2.7 2.7 0 00-1-.19h-3.56v2.59h2.55a1 1 0 01.7.29.87.87 0 01.22.32 1 1 0 01.08.37v9H13v2.6h12.87v-2.6h-5.1z" transform="translate(0 -.33)"/><path d="M67.42 16.06l-2.48.73V20h-2.82v2.35h2.82v7.6c0 1.74.5 2.93 1.51 3.55s2.59.8 4.76.52v-2.2c-.84 0-1.54.05-2.11 0a1.73 1.73 0 01-1.27-.45 2.07 2.07 0 01-.41-1.47v-7.6h3.79V20h-3.79zm12.68 3.56A7.17 7.17 0 0072.63 27a7.11 7.11 0 002.13 5.29 7.52 7.52 0 005.51 2.09 7 7 0 006.27-3.17L84.43 30a4.48 4.48 0 01-4.1 2 5.53 5.53 0 01-3.41-1 4.64 4.64 0 01-1.75-2.92h11.94a6.67 6.67 0 00.08-1.08 7.4 7.4 0 00-2-5.23 6.59 6.59 0 00-5.09-2.15zM75.17 26a4.81 4.81 0 011.62-3 5 5 0 013.31-1.11A4.5 4.5 0 0184.69 26zm26.64-3.61a6.07 6.07 0 00-5.39-2.77 6.91 6.91 0 00-5.1 2.15 7.54 7.54 0 000 10.46 6.9 6.9 0 005.1 2.14 6.07 6.07 0 005.39-2.77V34h2.48V20h-2.48zm-1.45 8.19A5 5 0 0196.74 32a5 5 0 110-10 5 5 0 013.62 1.44 5.14 5.14 0 010 7.16zm22.08-10.96A4.92 4.92 0 00118 22a4.43 4.43 0 00-4.19-2.39 4.72 4.72 0 00-4.24 2.25V20h-2.48v14h2.48v-7.8a4.36 4.36 0 011-3.19 3.48 3.48 0 012.6-1.07 2.84 2.84 0 012.21.9 3.63 3.63 0 01.81 2.52V34h2.48v-7.78a4.73 4.73 0 01.95-3.22 3.29 3.29 0 012.56-1 3 3 0 012.28.9 3.51 3.51 0 01.86 2.52V34h2.48v-8.71a5.73 5.73 0 00-1.48-4.14 5.16 5.16 0 00-3.88-1.53zm18.71 11.05a2 2 0 00-.72.13 1.8 1.8 0 00-.61.4 1.7 1.7 0 00-.41.59 1.74 1.74 0 00-.15.71 1.69 1.69 0 00.15.7 1.74 1.74 0 00.41.6 1.77 1.77 0 00.61.39 2 2 0 00.72.13 1.79 1.79 0 001.32-.53 1.83 1.83 0 000-2.58 1.76 1.76 0 00-1.32-.54zm-1.33-7.89a1.93 1.93 0 00.61.39 2 2 0 00.72.13 1.79 1.79 0 001.32-.53 1.85 1.85 0 000-2.59 1.79 1.79 0 00-1.32-.53 2 2 0 00-.72.13 1.93 1.93 0 00-.61.39 1.74 1.74 0 00-.41.6 1.73 1.73 0 000 1.41 1.74 1.74 0 00.41.6z" transform="translate(0 -.33)" fill="#303139"/></svg>