<svg width="140" height="50" fill="none" xmlns="http://www.w3.org/2000/svg"><g clip-path="url(#clip0_262_4307)"><path d="M43.265.325H6.291C2.817.325 0 3.157 0 6.65v37.026C0 47.168 2.817 50 6.291 50h36.974c3.475 0 6.291-2.831 6.291-6.324V6.65c0-3.493-2.816-6.325-6.29-6.325z" fill="#fff"/><path d="M20.336 15.573h-2.582v2.544h2.582v-2.544zm4.994 16.288H12.76v2.596h12.57V31.86zm11.207-9.939H23.875v2.596h12.662v-2.596z" fill="#174BE6"/><path d="M36.537 15.526h-4.994c-.685 0-1.342.274-1.826.76a2.602 2.602 0 00-.756 1.836v16.332h2.582v-15.4a.935.935 0 01.571-.86.92.92 0 01.355-.071h4.068v-2.597zm-18.782 3.801h-3.472v2.595h2.494a.972.972 0 01.904.605c.049.12.074.247.074.376v11.553h2.581V21.922a2.606 2.606 0 00-.755-1.835 2.581 2.581 0 00-1.826-.76z" fill="#174BE6"/><path d="M69.712 22.344h-3.71v7.598c0 .692.134 1.183.404 1.473.27.29.683.439 1.241.448a33.71 33.71 0 002.065-.041v2.187c-2.12.28-3.674.106-4.66-.519-.985-.625-1.478-1.807-1.478-3.548v-7.598h-2.76v-2.356h2.76v-3.197l2.427-.729v3.926h3.71v2.356zm3.878 5.778c.244 1.252.816 2.224 1.719 2.916.903.692 2.013 1.038 3.332 1.038 1.842 0 3.181-.683 4.018-2.047l2.064 1.177c-1.358 2.113-3.404 3.17-6.137 3.17-2.214 0-4.013-.697-5.398-2.09-1.386-1.393-2.078-3.155-2.079-5.287 0-2.112.68-3.87 2.037-5.272 1.358-1.402 3.115-2.104 5.274-2.104 2.045 0 3.715.725 5.007 2.174 1.293 1.449 1.94 3.192 1.939 5.23 0 .367-.029.732-.083 1.095H73.59zm4.83-6.198c-1.303 0-2.382.369-3.237 1.107-.855.739-1.385 1.725-1.59 2.959h9.32c-.204-1.326-.725-2.336-1.561-3.029-.837-.693-1.814-1.039-2.932-1.037zm21.255-1.935h2.427V34.01h-2.427V31.6c-1.21 1.85-2.967 2.774-5.273 2.774-1.953 0-3.617-.715-4.994-2.146-1.376-1.43-2.064-3.174-2.064-5.23 0-2.057.688-3.8 2.064-5.23 1.377-1.431 3.041-2.146 4.994-2.147 2.306 0 4.063.925 5.273 2.774V19.99zM94.709 32.02c1.413 0 2.594-.481 3.543-1.444.95-.963 1.423-2.155 1.423-3.576 0-1.42-.474-2.613-1.423-3.576-.948-.963-2.13-1.444-3.543-1.444-1.395 0-2.566.481-3.515 1.444-.949.963-1.423 2.155-1.423 3.576 0 1.421.474 2.613 1.423 3.576.949.962 2.12 1.444 3.515 1.444zm25.163-12.397c1.562 0 2.827.51 3.794 1.53.967 1.018 1.451 2.396 1.451 4.134v8.724h-2.427v-8.637c0-1.084-.279-1.925-.837-2.524-.558-.598-1.302-.898-2.232-.898-1.041 0-1.874.351-2.497 1.052-.623.701-.935 1.772-.937 3.212v7.795h-2.427v-8.637c0-1.084-.265-1.925-.795-2.524-.53-.598-1.249-.898-2.158-.899-1.023 0-1.873.356-2.551 1.066-.678.71-1.018 1.777-1.018 3.198v7.796h-2.427V19.988h2.427v1.88c.948-1.497 2.334-2.244 4.156-2.244 1.879 0 3.246.794 4.101 2.383.965-1.588 2.424-2.383 4.377-2.384zm18.314 3.675a1.802 1.802 0 01-1.302-.523 1.817 1.817 0 01-.542-1.3 1.834 1.834 0 01.542-1.3 1.813 1.813 0 011.302-.523c.521 0 .953.178 1.298.533a1.87 1.87 0 010 2.58c-.345.356-.777.533-1.298.533zm0 11.022a1.802 1.802 0 01-1.302-.523 1.817 1.817 0 01-.542-1.3 1.834 1.834 0 01.542-1.3 1.813 1.813 0 011.302-.523c.521 0 .953.177 1.298.533a1.87 1.87 0 010 2.58c-.345.355-.777.532-1.298.533z" fill="#fff"/></g><defs><clipPath id="clip0_262_4307"><path fill="#fff" d="M0 0h140v50H0z"/></clipPath></defs></svg>