<svg width="51" height="50" fill="none" xmlns="http://www.w3.org/2000/svg"><g clip-path="url(#clip0_288_4070)"><path d="M44.192.325H6.426C2.877.325 0 3.157 0 6.649v37.026C0 47.168 2.877 50 6.426 50h37.766c3.55 0 6.426-2.832 6.426-6.325V6.65c0-3.492-2.877-6.324-6.426-6.324z" fill="#174BE6"/><path d="M20.772 15.572h-2.637v2.545h2.637v-2.545zm5.101 16.289h-12.84v2.596h12.84V31.86zm11.447-9.939H24.387v2.596H37.32v-2.596z" fill="#fff"/><path d="M37.32 15.527h-5.1c-.7 0-1.37.273-1.865.76a2.575 2.575 0 00-.772 1.835v16.332h2.637v-15.4a.92.92 0 01.277-.658.946.946 0 01.67-.273h4.154v-2.596zm-19.184 3.8H14.59v2.595h2.547a1.009 1.009 0 01.707.287.981.981 0 01.292.694v11.553h2.637V21.922A2.56 2.56 0 0020 20.087a2.672 2.672 0 00-1.865-.76z" fill="#fff"/></g><defs><clipPath id="clip0_288_4070"><path fill="#fff" d="M0 0h51v50H0z"/></clipPath></defs></svg>