<svg width="209" height="74" fill="none" xmlns="http://www.w3.org/2000/svg"><g clip-path="url(#clip0_288_4189)"><path d="M64.589.481H9.392C4.205.481 0 4.671 0 9.841V64.64C0 69.81 4.205 74 9.392 74h55.197c5.187 0 9.392-4.19 9.392-9.36V9.84c0-5.169-4.205-9.36-9.392-9.36z" fill="#174BE6"/><path d="M30.358 23.047h-3.854v3.766h3.854v-3.766zm7.457 24.108H19.049v3.84h18.766v-3.84zm16.729-14.71h-18.9v3.841h18.901v-3.84z" fill="#fff"/><path d="M54.544 22.979h-7.455a3.861 3.861 0 00-2.726 1.125 3.835 3.835 0 00-1.129 2.716v24.172h3.855V28.2a1.37 1.37 0 01.404-.975 1.382 1.382 0 01.978-.403h6.073v-3.843zm-28.036 5.625h-5.184v3.841h3.724a1.46 1.46 0 011.348.895c.074.176.112.366.112.556v17.1h3.853v-18.55a3.83 3.83 0 00-1.128-2.717 3.852 3.852 0 00-2.725-1.125zm77.564 4.466h-5.54v11.245c0 1.024.202 1.75.604 2.179.403.428 1.021.65 1.853.664.833.014 1.86-.006 3.083-.062v3.237c-3.166.414-5.484.158-6.956-.767-1.472-.925-2.207-2.676-2.207-5.252V33.07h-4.12v-3.486h4.12v-4.732l3.623-1.08v5.811h5.54v3.487zm5.788 8.55c.363 1.853 1.218 3.292 2.566 4.317 1.347 1.024 3.005 1.535 4.975 1.535 2.749 0 4.748-1.01 5.997-3.03l3.082 1.743c-2.027 3.127-5.082 4.69-9.163 4.69-3.304 0-5.991-1.03-8.058-3.092-2.068-2.06-3.102-4.67-3.103-7.824 0-3.127 1.014-5.728 3.04-7.803 2.027-2.076 4.652-3.113 7.873-3.113 3.054 0 5.546 1.072 7.476 3.216 1.93 2.145 2.895 4.725 2.894 7.742a10.836 10.836 0 01-.124 1.619H109.86zm7.209-9.173c-1.944 0-3.554.546-4.831 1.64-1.276 1.092-2.068 2.552-2.374 4.378h13.915c-.307-1.963-1.084-3.457-2.332-4.483-1.249-1.025-2.708-1.537-4.378-1.535zm31.73-2.864h3.623v20.754h-3.623v-3.57c-1.805 2.737-4.429 4.106-7.871 4.106-2.916 0-5.4-1.06-7.455-3.177-2.055-2.117-3.082-4.698-3.082-7.74 0-3.045 1.027-5.625 3.082-7.742 2.055-2.117 4.539-3.176 7.455-3.176 3.442 0 6.065 1.368 7.871 4.106v-3.561zm-7.414 17.806c2.11 0 3.873-.712 5.29-2.137 1.417-1.425 2.125-3.19 2.124-5.292 0-2.103-.708-3.867-2.124-5.292-1.416-1.426-3.179-2.138-5.29-2.138-2.081 0-3.83.713-5.247 2.138-1.416 1.425-2.124 3.189-2.124 5.292 0 2.103.708 3.867 2.124 5.292 1.417 1.424 3.166 2.137 5.247 2.137zm37.567-18.346c2.332 0 4.219.754 5.663 2.262 1.444 1.509 2.166 3.549 2.166 6.12v12.912h-3.623V37.554c0-1.605-.417-2.85-1.249-3.735-.833-.886-1.944-1.329-3.332-1.329-1.555 0-2.797.519-3.728 1.556-.93 1.038-1.396 2.622-1.399 4.753v11.538h-3.623V37.554c0-1.605-.396-2.85-1.187-3.735-.791-.886-1.865-1.33-3.221-1.33-1.528 0-2.797.525-3.809 1.577-1.012 1.051-1.519 2.629-1.52 4.732v11.539h-3.623V29.583h3.623v2.78c1.416-2.213 3.484-3.32 6.206-3.32 2.804 0 4.844 1.176 6.121 3.528 1.44-2.35 3.618-3.527 6.535-3.528zm27.34 5.437a2.72 2.72 0 01-1.944-.773 2.7 2.7 0 01-.598-2.967 2.7 2.7 0 012.542-1.655c.778 0 1.423.263 1.938.788a2.754 2.754 0 010 3.82c-.515.526-1.161.788-1.938.788zm0 16.313a2.716 2.716 0 01-1.944-.774 2.701 2.701 0 01-.809-1.924 2.69 2.69 0 01.809-1.924 2.724 2.724 0 011.944-.774c.778 0 1.423.263 1.938.788a2.754 2.754 0 010 3.82c-.515.524-1.161.787-1.938.788z" fill="#fff"/></g><defs><clipPath id="clip0_288_4189"><path fill="#fff" d="M0 0h209v74H0z"/></clipPath></defs></svg>