<svg width="174" height="25" fill="none" xmlns="http://www.w3.org/2000/svg"><g clip-path="url(#clip0_1663_10325)"><path d="M30.562 6.402v11.907L20.269 6.405h-1.21V6.4h-1.886l-1.892-.003V18.31L4.988 6.404 0 6.399l14.883 17.215a2.38 2.38 0 001.799.823 2.373 2.373 0 002.377-2.37v-11.3l11.105 12.847a2.38 2.38 0 001.799.823 2.373 2.373 0 002.377-2.37V6.403h-3.778zm25.42 10.34H42.034c.11 1.454.65 2.62 1.623 3.5.972.882 2.164 1.322 3.577 1.322 2.033 0 3.468-.848 4.307-2.542h4.075c-.551 1.673-1.551 3.043-2.998 4.11-1.448 1.069-3.242 1.603-5.384 1.603-1.744 0-3.307-.39-4.687-1.172-1.38-.781-2.463-1.883-3.246-3.303-.784-1.42-1.176-3.065-1.176-4.937 0-1.87.38-3.516 1.144-4.936.76-1.42 1.832-2.516 3.212-3.286 1.38-.77 2.965-1.155 4.755-1.155s3.258.374 4.606 1.122a7.962 7.962 0 013.147 3.153c.75 1.353 1.126 2.912 1.126 4.672 0 .682-.045 1.3-.133 1.85zm-3.809-3.038c-.022-1.387-.52-2.498-1.49-3.335-.973-.837-2.175-1.254-3.612-1.254-1.303 0-2.418.413-3.345 1.238-.928.826-1.48 1.943-1.657 3.353h10.104v-.002zm14.06-6.918c1.114-.561 2.357-.842 3.727-.842 1.612 0 3.07.386 4.374 1.156 1.304.771 2.33 1.865 3.082 3.285.75 1.42 1.126 3.043 1.126 4.872 0 1.828-.376 3.462-1.126 4.903-.751 1.442-1.785 2.564-3.098 3.368-1.314.803-2.766 1.205-4.356 1.205-1.414 0-2.668-.276-3.76-.826-1.094-.55-1.96-1.254-2.6-2.113v2.64h-3.778V0h3.778v8.949c.64-.88 1.517-1.602 2.634-2.163h-.004zm7.686 5.217c-.52-.913-1.205-1.607-2.054-2.08a5.534 5.534 0 00-2.733-.71c-.97 0-1.85.243-2.7.727-.85.485-1.535 1.19-2.053 2.114-.52.925-.779 2.015-.779 3.27 0 1.254.26 2.349.779 3.285.518.935 1.204 1.646 2.053 2.13a5.382 5.382 0 002.7.726 5.4 5.4 0 002.733-.743c.85-.495 1.535-1.216 2.054-2.163.518-.947.778-2.046.778-3.303 0-1.256-.259-2.338-.778-3.253z" fill="#4169DE"/><path d="M95.356 6.836c1.137.594 2.026 1.474 2.668 2.64.64 1.168.96 2.577.96 4.228v10.733h-3.743V14.265c0-1.629-.41-2.879-1.227-3.747-.817-.869-1.933-1.304-3.346-1.304-1.412 0-2.534.435-3.363 1.304-.828.87-1.242 2.118-1.242 3.747v10.172h-3.778V6.24h3.778v2.08c.617-.747 1.407-1.33 2.368-1.75a7.603 7.603 0 013.064-.628c1.436 0 2.722.296 3.861.89v.003zm8.316 3.567c.762-1.41 1.8-2.505 3.114-3.286 1.315-.78 2.767-1.171 4.357-1.171 1.436 0 2.688.28 3.759.841 1.072.562 1.928 1.261 2.569 2.098V6.244h3.809V24.44h-3.809v-2.71c-.641.86-1.513 1.575-2.618 2.148-1.105.572-2.364.859-3.778.859-1.568 0-3.003-.402-4.306-1.205-1.304-.804-2.335-1.926-3.098-3.368-.761-1.441-1.144-3.077-1.144-4.904 0-1.826.381-3.444 1.144-4.853l.001-.005zm13.02 1.651c-.52-.924-1.198-1.629-2.037-2.114a5.345 5.345 0 00-2.718-.726c-.972 0-1.877.237-2.717.709-.839.473-1.519 1.167-2.037 2.08-.52.913-.779 1.997-.779 3.254 0 1.256.259 2.356.779 3.302.518.947 1.204 1.668 2.053 2.163a5.281 5.281 0 002.7.743c.948 0 1.877-.242 2.717-.727.84-.484 1.518-1.194 2.037-2.13.52-.935.779-2.03.779-3.285 0-1.254-.259-2.344-.779-3.269h.002zm26.09-5.814v18.197h-3.777v-2.148c-.597.75-1.376 1.338-2.335 1.767a7.437 7.437 0 01-3.064.644c-1.436 0-2.722-.297-3.859-.892-1.139-.594-2.033-1.474-2.684-2.64-.651-1.168-.977-2.577-.977-4.228V6.24h3.744v10.14c0 1.629.408 2.879 1.226 3.747.818.87 1.932 1.304 3.346 1.304 1.414 0 2.535-.435 3.363-1.304.829-.868 1.243-2.118 1.243-3.747V6.24h3.778-.004zm9.377 3.072v10.071c0 .683.16 1.172.48 1.47.32.297.867.446 1.639.446h2.319v3.137h-2.983c-1.701 0-3.003-.396-3.908-1.189-.907-.792-1.358-2.08-1.358-3.864V9.313h-2.153V6.24h2.153V1.717h3.809V6.24h4.44v3.071h-4.44.002zm21.534 10.04c0 1.034-.286 1.959-.86 2.775-.578.813-1.387 1.45-2.438 1.914-.95.42-2.055.647-3.304.686-.128.003-.257.006-.388.006h-7.621v-3.169h7.553c1.061 0 1.883-.202 2.47-.612.583-.407.876-.928.876-1.566 0-.682-.325-1.19-.976-1.52-.652-.33-1.685-.692-3.099-1.089-1.37-.375-2.485-.736-3.346-1.089a5.876 5.876 0 01-2.235-1.62c-.627-.726-.944-1.682-.944-2.87 0-.97.286-1.854.861-2.66.574-.804 1.396-1.435 2.469-1.899 1.034-.445 2.224-.676 3.561-.689.042-.003.087-.003.131-.003h7.109v3.17h-7.238c-.995 0-1.756.187-2.287.562-.529.374-.793.87-.793 1.486 0 .486.176.892.529 1.222.354.33.784.588 1.294.775.507.188 1.259.425 2.252.71 1.325.353 2.411.709 3.262 1.074a6.096 6.096 0 012.206 1.6c.614.704.937 1.642.959 2.807l-.003-.002z" fill="#303030"/></g><defs><clipPath id="clip0_1663_10325"><path fill="#fff" d="M0 0h173.692v24.735H0z"/></clipPath></defs></svg>