<svg width="16" height="16" viewBox="0 0 16 16" fill="none" xmlns="http://www.w3.org/2000/svg">
<g clip-path="url(#clip0_390_1242)">
<path d="M13.8643 0.104004H2.01601C0.902597 0.104004 0 1.01011 0 2.12785V13.9761C0 15.0939 0.902597 16 2.01601 16H13.8643C14.9777 16 15.8803 15.0939 15.8803 13.9761V2.12785C15.8803 1.01011 14.9777 0.104004 13.8643 0.104004Z" fill="#174BE6"/>
<path d="M6.51675 4.9834H5.68945V5.79749H6.51675V4.9834Z" fill="white"/>
<path d="M8.11704 10.1958H4.08887V11.0263H8.11704V10.1958Z" fill="white"/>
<path d="M11.7078 7.01514H7.65039V7.84565H11.7078V7.01514Z" fill="white"/>
<path d="M11.7079 4.96826H10.1076C9.88816 4.96826 9.67773 5.05576 9.52258 5.21151C9.36743 5.36726 9.28027 5.57851 9.28027 5.79877V11.0251H10.1076V6.09711C10.1075 6.05797 10.1152 6.01921 10.1301 5.98304C10.145 5.94688 10.1669 5.91402 10.1945 5.88634C10.222 5.85867 10.2548 5.83672 10.2908 5.82175C10.3268 5.80678 10.3654 5.79909 10.4044 5.79911H11.7079V4.96826Z" fill="white"/>
<path d="M5.68977 6.18457H5.67025H4.57715V7.01508H5.37641C5.41752 7.01497 5.45825 7.02301 5.49627 7.03872C5.53428 7.05444 5.56883 7.07753 5.59794 7.10668C5.62705 7.13582 5.65015 7.17045 5.6659 7.20857C5.68166 7.24669 5.68977 7.28756 5.68977 7.32883V11.0259H6.5169V7.01508C6.51692 6.90603 6.49554 6.79803 6.45399 6.69727C6.41243 6.59651 6.35151 6.50495 6.2747 6.42783C6.19789 6.35071 6.1067 6.28953 6.00634 6.24779C5.90598 6.20605 5.79841 6.18457 5.68977 6.18457Z" fill="white"/>
</g>
<defs>
<clipPath id="clip0_390_1242">
<rect width="16" height="16" fill="white"/>
</clipPath>
</defs>
</svg>
