<svg id="Layer_1" data-name="Layer 1" xmlns="http://www.w3.org/2000/svg" viewBox="0 0 143 49.67"><defs><style>.cls-1{fill:#174be6;}.cls-2{fill:#fff;}.cls-3{fill:#303139;}</style></defs><path class="cls-1" d="M44.19.33H6.43A6.38,6.38,0,0,0,0,6.65v37A6.38,6.38,0,0,0,6.43,50H44.19a6.38,6.38,0,0,0,6.43-6.32v-37A6.38,6.38,0,0,0,44.19.33Z" transform="translate(0 -0.33)"/><rect class="cls-2" x="18.13" y="15.25" width="2.64" height="2.54"/><path class="cls-2" d="M32.29,18.7a.81.81,0,0,1,.21-.3.9.9,0,0,1,.3-.21,1.16,1.16,0,0,1,.37-.07h4.15V15.53h-5.1a2.67,2.67,0,0,0-1.87.76,2.56,2.56,0,0,0-.77,1.83v3.8H24.39v2.6h5.19v9.93h2.64V24.52h5.1v-2.6h-5.1V19.05A.84.84,0,0,1,32.29,18.7Z" transform="translate(0 -0.33)"/><path class="cls-2" d="M20.77,21.92a2.57,2.57,0,0,0-.2-1,2.41,2.41,0,0,0-.57-.84,2.76,2.76,0,0,0-.85-.57,2.7,2.7,0,0,0-1-.19H14.59v2.59h2.55a1,1,0,0,1,.7.29.87.87,0,0,1,.22.32,1,1,0,0,1,.08.37v9H13v2.6H25.87v-2.6h-5.1Z" transform="translate(0 -0.33)"/><path class="cls-3" d="M67.42,16.06l-2.48.73V20H62.12v2.35h2.82v7.6c0,1.74.5,2.93,1.51,3.55s2.59.8,4.76.52V31.82c-.84,0-1.54.05-2.11,0a1.73,1.73,0,0,1-1.27-.45,2.07,2.07,0,0,1-.41-1.47v-7.6h3.79V20H67.42Z" transform="translate(0 -0.33)"/><path class="cls-3" d="M80.1,19.62A7.17,7.17,0,0,0,72.63,27a7.11,7.11,0,0,0,2.13,5.29,7.52,7.52,0,0,0,5.51,2.09,7,7,0,0,0,6.27-3.17L84.43,30a4.48,4.48,0,0,1-4.1,2,5.53,5.53,0,0,1-3.41-1,4.64,4.64,0,0,1-1.75-2.92H87.11A6.67,6.67,0,0,0,87.19,27a7.4,7.4,0,0,0-2-5.23A6.59,6.59,0,0,0,80.1,19.62ZM75.17,26a4.81,4.81,0,0,1,1.62-3,5,5,0,0,1,3.31-1.11A4.5,4.5,0,0,1,84.69,26Z" transform="translate(0 -0.33)"/><path class="cls-3" d="M101.81,22.39a6.07,6.07,0,0,0-5.39-2.77,6.91,6.91,0,0,0-5.1,2.15,7.54,7.54,0,0,0,0,10.46,6.9,6.9,0,0,0,5.1,2.14,6.07,6.07,0,0,0,5.39-2.77V34h2.48V20h-2.48Zm-1.45,8.19A5,5,0,0,1,96.74,32a5,5,0,1,1,0-10,5,5,0,0,1,3.62,1.44,5.14,5.14,0,0,1,0,7.16Z" transform="translate(0 -0.33)"/><path class="cls-3" d="M122.44,19.62A4.92,4.92,0,0,0,118,22a4.43,4.43,0,0,0-4.19-2.39,4.72,4.72,0,0,0-4.24,2.25V20h-2.48V34h2.48v-7.8a4.36,4.36,0,0,1,1-3.19,3.48,3.48,0,0,1,2.6-1.07,2.84,2.84,0,0,1,2.21.9,3.63,3.63,0,0,1,.81,2.52V34h2.48V26.22a4.73,4.73,0,0,1,.95-3.22A3.29,3.29,0,0,1,122.18,22a3,3,0,0,1,2.28.9,3.51,3.51,0,0,1,.86,2.52V34h2.48V25.29a5.73,5.73,0,0,0-1.48-4.14A5.16,5.16,0,0,0,122.44,19.62Z" transform="translate(0 -0.33)"/><path class="cls-3" d="M141.15,30.67a2,2,0,0,0-.72.13,1.8,1.8,0,0,0-.61.4,1.7,1.7,0,0,0-.41.59,1.74,1.74,0,0,0-.15.71,1.69,1.69,0,0,0,.15.7,1.74,1.74,0,0,0,.41.6,1.77,1.77,0,0,0,.61.39,2,2,0,0,0,.72.13,1.79,1.79,0,0,0,1.32-.53,1.83,1.83,0,0,0,0-2.58A1.76,1.76,0,0,0,141.15,30.67Z" transform="translate(0 -0.33)"/><path class="cls-3" d="M139.82,22.78a1.93,1.93,0,0,0,.61.39,2,2,0,0,0,.72.13,1.79,1.79,0,0,0,1.32-.53,1.85,1.85,0,0,0,0-2.59,1.79,1.79,0,0,0-1.32-.53,2,2,0,0,0-.72.13,1.93,1.93,0,0,0-.61.39,1.74,1.74,0,0,0-.41.6,1.73,1.73,0,0,0,0,1.41A1.74,1.74,0,0,0,139.82,22.78Z" transform="translate(0 -0.33)"/></svg>