<svg width="51" height="50" viewBox="0 0 51 50" fill="none" xmlns="http://www.w3.org/2000/svg">
<g clip-path="url(#clip0_288_4070)">
<path d="M44.1923 0.324951H6.42602C2.87703 0.324951 0 3.15654 0 6.64948V43.6754C0 47.1683 2.87703 49.9999 6.42602 49.9999H44.1923C47.7413 49.9999 50.6184 47.1683 50.6184 43.6754V6.64948C50.6184 3.15654 47.7413 0.324951 44.1923 0.324951Z" fill="#174BE6"/>
<path d="M20.7718 15.5725H18.1348V18.1166H20.7718V15.5725Z" fill="white"/>
<path d="M25.873 31.8613H13.0332V34.4567H25.873V31.8613Z" fill="white"/>
<path d="M37.3196 21.9224H24.3867V24.5177H37.3196V21.9224Z" fill="white"/>
<path d="M37.3202 15.5266H32.219C31.5197 15.5266 30.8489 15.8001 30.3544 16.2868C29.8599 16.7735 29.582 17.4336 29.582 18.122V34.4541H32.219V19.0543C32.219 18.9319 32.2434 18.8108 32.2909 18.6978C32.3384 18.5848 32.4081 18.4821 32.496 18.3956C32.5839 18.3091 32.6882 18.2405 32.803 18.1938C32.9179 18.147 33.0409 18.1229 33.1652 18.123H37.3202V15.5266Z" fill="white"/>
<path d="M18.1363 19.3269H18.0741H14.5898V21.9223H17.1375C17.2685 21.9219 17.3984 21.947 17.5195 21.9961C17.6407 22.0453 17.7508 22.1174 17.8436 22.2085C17.9364 22.2996 18.01 22.4078 18.0603 22.5269C18.1105 22.646 18.1363 22.7737 18.1363 22.9027V34.4561H20.7728V21.9223C20.7729 21.5815 20.7047 21.244 20.5723 20.9291C20.4398 20.6142 20.2456 20.3281 20.0008 20.0871C19.756 19.8461 19.4653 19.6549 19.1454 19.5245C18.8255 19.394 18.4826 19.3269 18.1363 19.3269Z" fill="white"/>
</g>
<defs>
<clipPath id="clip0_288_4070">
<rect width="51" height="50" fill="white"/>
</clipPath>
</defs>
</svg>
