<svg width="140" height="50" viewBox="0 0 140 50" fill="none" xmlns="http://www.w3.org/2000/svg">
<g clip-path="url(#clip0_262_4307)">
<path d="M43.2652 0.325195H6.29121C2.81667 0.325195 0 3.15678 0 6.64972V43.6756C0 47.1685 2.81667 50.0001 6.29121 50.0001H43.2652C46.7398 50.0001 49.5564 47.1685 49.5564 43.6756V6.64972C49.5564 3.15678 46.7398 0.325195 43.2652 0.325195Z" fill="white"/>
<path d="M20.3356 15.5728H17.7539V18.1168H20.3356V15.5728Z" fill="#174BE6"/>
<path d="M25.3302 31.8613H12.7598V34.4567H25.3302V31.8613Z" fill="#174BE6"/>
<path d="M36.5366 21.9224H23.875V24.5177H36.5366V21.9224Z" fill="#174BE6"/>
<path d="M36.5367 15.5264H31.5426C30.8579 15.5264 30.2013 15.7998 29.7171 16.2865C29.2329 16.7733 28.9609 17.4334 28.9609 18.1217V34.4539H31.5426V19.054C31.5425 18.9317 31.5665 18.8106 31.613 18.6976C31.6595 18.5845 31.7277 18.4819 31.8138 18.3954C31.8998 18.3089 32.002 18.2403 32.1144 18.1935C32.2268 18.1467 32.3473 18.1227 32.469 18.1228H36.5367V15.5264Z" fill="#174BE6"/>
<path d="M17.7553 19.3271H17.6944H14.2832V21.9225H16.7774C16.9057 21.9222 17.0328 21.9473 17.1514 21.9964C17.2701 22.0455 17.3779 22.1177 17.4687 22.2087C17.5596 22.2998 17.6316 22.408 17.6808 22.5271C17.73 22.6463 17.7553 22.774 17.7553 22.903V34.4564H20.3364V21.9225C20.3365 21.5817 20.2698 21.2442 20.1401 20.9293C20.0104 20.6145 19.8203 20.3283 19.5806 20.0873C19.3409 19.8463 19.0564 19.6552 18.7432 19.5247C18.43 19.3943 18.0943 19.3271 17.7553 19.3271Z" fill="#174BE6"/>
<path d="M69.7118 22.3441H66.0012V29.9423C66.0012 30.6343 66.1361 31.1251 66.4058 31.4148C66.6756 31.7044 67.0893 31.854 67.6472 31.8634C68.2047 31.8732 68.8929 31.8592 69.7118 31.8215V34.0091C67.5915 34.2883 66.0384 34.1153 65.0525 33.4903C64.0666 32.8653 63.5739 31.6826 63.5742 29.9423V22.3441H60.8145V19.9885H63.5742V16.7912L66.0012 16.062V19.988H69.7118V22.3441Z" fill="white"/>
<path d="M73.5906 28.1215C73.8336 29.374 74.4063 30.3462 75.3089 31.0383C76.2115 31.7303 77.3223 32.0761 78.6414 32.0758C80.483 32.0758 81.8221 31.3933 82.6587 30.0285L84.7233 31.2063C83.3653 33.3194 81.3194 34.3757 78.5857 34.3754C76.372 34.3754 74.5726 33.679 73.1875 32.2862C71.8024 30.8934 71.1097 29.1311 71.1094 26.9992C71.1094 24.8865 71.7882 23.129 73.1459 21.7268C74.5035 20.3246 76.2614 19.6235 78.4196 19.6235C80.4653 19.6235 82.1345 20.348 83.4273 21.797C84.72 23.2459 85.3662 24.9894 85.3659 27.0275C85.3651 27.3937 85.3373 27.7594 85.2826 28.1215H73.5906ZM78.4196 21.9236C77.1171 21.9236 76.0384 22.2929 75.1834 23.0313C74.3284 23.7697 73.7983 24.756 73.5932 25.9899H82.9139C82.7087 24.6638 82.188 23.6542 81.3517 22.9612C80.5155 22.2681 79.5381 21.9223 78.4196 21.9236Z" fill="white"/>
<path d="M99.6747 19.9886H102.102V34.0113H99.6747V31.5991C98.4656 33.4487 96.708 34.3735 94.402 34.3735C92.4493 34.3735 90.7848 33.6581 89.4084 32.2273C88.032 30.7965 87.3438 29.053 87.3438 26.9968C87.3438 24.9403 88.032 23.1968 89.4084 21.7663C90.7848 20.3359 92.4493 19.6205 94.402 19.6201C96.7077 19.6201 98.4652 20.5449 99.6747 22.3945V19.9886ZM94.7087 32.02C96.1219 32.02 97.303 31.5386 98.2521 30.5758C99.2012 29.6129 99.6754 28.421 99.6747 27C99.6747 25.5793 99.2005 24.3873 98.2521 23.4242C97.3037 22.461 96.1226 21.9796 94.7087 21.9799C93.3142 21.9799 92.1426 22.4613 91.1939 23.4242C90.2451 24.387 89.7708 25.5789 89.7708 27C89.7708 28.4213 90.2451 29.6133 91.1939 30.5758C92.1426 31.5382 93.3142 32.0197 94.7087 32.02Z" fill="white"/>
<path d="M119.872 19.6235C121.434 19.6235 122.699 20.133 123.666 21.1521C124.633 22.1711 125.117 23.5495 125.117 25.2874V34.011H122.69V25.3738C122.69 24.2899 122.411 23.4487 121.853 22.8502C121.295 22.2517 120.551 21.9524 119.621 21.9524C118.58 21.9524 117.747 22.303 117.124 23.0041C116.501 23.7052 116.189 24.7757 116.187 26.2156V34.011H113.76V25.3738C113.76 24.2899 113.495 23.4487 112.965 22.8502C112.435 22.2517 111.716 21.9521 110.807 21.9514C109.784 21.9514 108.934 22.3067 108.256 23.0172C107.578 23.7277 107.238 24.7935 107.238 26.2145V34.011H104.811V19.9884H107.238V21.8671C108.186 20.3714 109.572 19.6235 111.394 19.6235C113.273 19.6235 114.64 20.4182 115.495 22.0074C116.46 20.4189 117.919 19.6242 119.872 19.6235Z" fill="white"/>
<path d="M138.186 23.2981C137.945 23.3022 137.706 23.258 137.483 23.1683C137.259 23.0785 137.056 22.9449 136.884 22.7752C136.712 22.6055 136.576 22.4032 136.483 22.1799C136.39 21.9567 136.342 21.7171 136.342 21.4751C136.342 21.2331 136.39 20.9935 136.483 20.7702C136.576 20.547 136.712 20.3447 136.884 20.175C137.056 20.0053 137.259 19.8717 137.483 19.7819C137.706 19.6921 137.945 19.648 138.186 19.6521C138.707 19.6521 139.139 19.8297 139.484 20.185C139.815 20.532 140 20.9942 140 21.4751C140 21.9559 139.815 22.4182 139.484 22.7652C139.139 23.1208 138.707 23.2984 138.186 23.2981ZM138.186 34.3197C137.945 34.3238 137.706 34.2796 137.483 34.1899C137.259 34.1001 137.056 33.9665 136.884 33.7968C136.712 33.6271 136.576 33.4248 136.483 33.2015C136.39 32.9783 136.342 32.7387 136.342 32.4967C136.342 32.2547 136.39 32.0151 136.483 31.7918C136.576 31.5686 136.712 31.3663 136.884 31.1966C137.056 31.0269 137.259 30.8933 137.483 30.8035C137.706 30.7137 137.945 30.6696 138.186 30.6737C138.707 30.6737 139.139 30.8513 139.484 31.2066C139.815 31.5536 140 32.0158 140 32.4967C140 32.9775 139.815 33.4398 139.484 33.7868C139.139 34.1417 138.707 34.3193 138.186 34.3197Z" fill="white"/>
</g>
<defs>
<clipPath id="clip0_262_4307">
<rect width="140" height="50" fill="white"/>
</clipPath>
</defs>
</svg>
