<svg width="209" height="74" viewBox="0 0 209 74" fill="none" xmlns="http://www.w3.org/2000/svg">
<g clip-path="url(#clip0_288_4189)">
<path d="M64.5888 0.481201H9.39188C4.20489 0.481201 0 4.67195 0 9.8415V64.6398C0 69.8093 4.20489 74.0001 9.39188 74.0001H64.5888C69.7758 74.0001 73.9807 69.8093 73.9807 64.6398V9.8415C73.9807 4.67195 69.7758 0.481201 64.5888 0.481201Z" fill="#174BE6"/>
<path d="M30.358 23.0474H26.5039V26.8126H30.358V23.0474Z" fill="white"/>
<path d="M37.8147 47.1548H19.0488V50.9959H37.8147V47.1548Z" fill="white"/>
<path d="M54.5445 32.4451H35.6426V36.2862H54.5445V32.4451Z" fill="white"/>
<path d="M54.544 22.979H47.0885C46.0663 22.979 45.086 23.3837 44.3632 24.104C43.6404 24.8244 43.2344 25.8014 43.2344 26.8201V50.9917H47.0885V28.1999C47.0883 28.0189 47.124 27.8396 47.1935 27.6724C47.263 27.5051 47.3648 27.3531 47.4933 27.2251C47.6217 27.0971 47.7742 26.9956 47.942 26.9264C48.1098 26.8571 48.2897 26.8216 48.4713 26.8217H54.544V22.979Z" fill="white"/>
<path d="M26.5076 28.6042H26.4166H21.3242V32.4454H25.0477C25.2392 32.4449 25.429 32.482 25.6061 32.5547C25.7832 32.6274 25.9441 32.7342 26.0797 32.869C26.2153 33.0038 26.3229 33.1639 26.3964 33.3402C26.4698 33.5165 26.5076 33.7056 26.5076 33.8964V50.9955H30.3609V32.4454C30.361 31.941 30.2614 31.4415 30.0678 30.9755C29.8742 30.5095 29.5903 30.086 29.2325 29.7293C28.8747 29.3726 28.4499 29.0897 27.9823 28.8967C27.5148 28.7036 27.0136 28.6042 26.5076 28.6042Z" fill="white"/>
<path d="M104.072 33.0693H98.5322V44.3145C98.5322 45.3387 98.7335 46.0651 99.1362 46.4938C99.5389 46.9225 100.157 47.1438 100.989 47.1578C101.822 47.1722 102.849 47.1516 104.072 47.0958V50.3334C100.906 50.7466 98.5876 50.4907 97.1159 49.5656C95.6441 48.6406 94.9085 46.8902 94.909 44.3145V33.0693H90.7891V29.583H94.909V24.8509L98.5322 23.7717V29.5822H104.072V33.0693Z" fill="white"/>
<path d="M109.86 41.6197C110.223 43.4734 111.078 44.9123 112.426 45.9365C113.773 46.9607 115.431 47.4725 117.401 47.472C120.15 47.472 122.149 46.462 123.398 44.4421L126.48 46.1852C124.453 49.3125 121.398 50.8759 117.317 50.8754C114.013 50.8754 111.326 49.8448 109.259 47.7835C107.191 45.7222 106.157 43.1139 106.156 39.9587C106.156 36.8319 107.17 34.2308 109.196 32.1556C111.223 30.0803 113.848 29.0427 117.069 29.0427C120.123 29.0427 122.615 30.115 124.545 32.2594C126.475 34.4039 127.44 36.9842 127.439 40.0005C127.438 40.5426 127.397 41.0838 127.315 41.6197H109.86ZM117.069 32.4469C115.125 32.4469 113.515 32.9933 112.238 34.0862C110.962 35.1791 110.17 36.6387 109.864 38.465H123.779C123.472 36.5024 122.695 35.0082 121.447 33.9824C120.198 32.9567 118.739 32.4448 117.069 32.4469Z" fill="white"/>
<path d="M148.799 29.583H152.422V50.3365H148.799V46.7666C146.994 49.5039 144.37 50.8726 140.928 50.8726C138.012 50.8726 135.528 49.8138 133.473 47.6962C131.418 45.5786 130.391 42.9983 130.391 39.9551C130.391 36.9114 131.418 34.3311 133.473 32.214C135.528 30.0969 138.012 29.0381 140.928 29.0376C144.37 29.0376 146.993 30.4063 148.799 33.1437V29.583ZM141.385 47.3894C143.495 47.3894 145.258 46.6769 146.675 45.2519C148.092 43.827 148.8 42.0629 148.799 39.9598C148.799 37.8571 148.091 36.0931 146.675 34.6676C145.259 33.2421 143.496 32.5296 141.385 32.5301C139.304 32.5301 137.555 33.2426 136.138 34.6676C134.722 36.0926 134.014 37.8566 134.014 39.9598C134.014 42.0634 134.722 43.8275 136.138 45.2519C137.555 46.6764 139.304 47.3889 141.385 47.3894Z" fill="white"/>
<path d="M178.952 29.0432C181.284 29.0432 183.171 29.7973 184.615 31.3054C186.059 32.8136 186.781 34.8537 186.781 37.4258V50.3367H183.158V37.5536C183.158 35.9494 182.741 34.7044 181.909 33.8187C181.076 32.9329 179.965 32.49 178.577 32.49C177.022 32.49 175.78 33.0088 174.849 34.0464C173.919 35.084 173.453 36.6684 173.45 38.7994V50.3367H169.827V37.5536C169.827 35.9494 169.431 34.7044 168.64 33.8187C167.849 32.9329 166.775 32.4895 165.419 32.4884C163.891 32.4884 162.622 33.0142 161.61 34.0658C160.598 35.1174 160.091 36.6947 160.09 38.7979V50.3367H156.467V29.5832H160.09V32.3637C161.506 30.15 163.574 29.0432 166.296 29.0432C169.1 29.0432 171.14 30.2193 172.417 32.5713C173.857 30.2203 176.035 29.0442 178.952 29.0432Z" fill="white"/>
<path d="M206.292 34.4809C205.933 34.4869 205.576 34.4216 205.242 34.2888C204.909 34.1559 204.605 33.9581 204.348 33.707C204.092 33.4559 203.889 33.1564 203.75 32.826C203.611 32.4957 203.539 32.1411 203.539 31.7829C203.539 31.4247 203.611 31.07 203.75 30.7397C203.889 30.4093 204.092 30.1098 204.348 29.8587C204.605 29.6076 204.909 29.4098 205.242 29.277C205.576 29.1441 205.933 29.0788 206.292 29.0849C207.07 29.0849 207.715 29.3478 208.23 29.8735C208.724 30.3871 209 31.0712 209 31.7829C209 32.4945 208.724 33.1786 208.23 33.6922C207.715 34.2185 207.069 34.4814 206.292 34.4809ZM206.292 50.7928C205.933 50.7989 205.576 50.7336 205.242 50.6007C204.909 50.4679 204.605 50.2701 204.348 50.019C204.092 49.7678 203.889 49.4684 203.75 49.138C203.611 48.8077 203.539 48.453 203.539 48.0948C203.539 47.7366 203.611 47.382 203.75 47.0516C203.889 46.7213 204.092 46.4218 204.348 46.1707C204.605 45.9195 204.909 45.7218 205.242 45.5889C205.576 45.4561 205.933 45.3908 206.292 45.3968C207.07 45.3968 207.715 45.6597 208.23 46.1855C208.724 46.6991 209 47.3832 209 48.0948C209 48.8065 208.724 49.4906 208.23 50.0042C207.715 50.5294 207.069 50.7923 206.292 50.7928Z" fill="white"/>
</g>
<defs>
<clipPath id="clip0_288_4189">
<rect width="209" height="74" fill="white"/>
</clipPath>
</defs>
</svg>
